<svg xmlns="http://www.w3.org/2000/svg" data-name="Layer 1" width="840.5" height="757.8">
  <path fill="#3f3d56" d="m534.3 438.6-116-138-232.9 2.1L44.2 440.3l2.8 1.9h-1v286.1h487.9V442.2l.4-3.6z"/>
  <path fill="#6c63ff" d="M418.4 300.9 273.5 470.8v257.5h260.4V438.5L418.4 300.9z"/>
  <path fill="#fff" d="M378 585.9h53.2v47H378zM378 504.5h53.2v46.3H378zM141.6 573.4h53.2v47h-53.2zM141.6 492.1h53.2v46.3h-53.2z"/>
  <path fill="#3f3d56" d="M0 727.4h840.5v2H0z"/>
  <path fill="#a0616a" d="m713.9 695.8 4 20-20 4 3-25 13 1zM776.9 691.8l-5 25h-24l10-30 19 5z"/>
  <path d="m799 517.8 4 27-5 59-4 22-17 72s-19 0-22-8l5-41s4-33 3-37l-16-68s-22 101-25 110-7 48-7 48-17 3-18 0-2-74-2-85 2-17 2-19-8-97.4-8-97.4ZM758 711.8s5 1 8 0 0-7 0-7h11s12 27 17 29 21 24 2 24a62 62 0 0 1-33-10s-2-9-11-10-15-12-15-12l13-24s3 11 8 10ZM711 710.8s-2 4-4 2-4-7-4-7-6-3-7 0-5 19-7 21-23 23-2 27 25-5 25-5-3-5 3-7 7-9 7-9l-4-30s-4 10-7 8Z" fill="#2f2e41"/>
  <path d="m822 447.8 3 52s14 33-5 32-7-33-7-33l-18.7-46.4ZM668 432.8l-3 52s-14 33 5 32 7-33 7-33l18.5-46.4Z" fill="#a0616a"/>
  <circle cx="747.9" cy="293.8" r="26" fill="#a0616a"/>
  <path d="M768.4 304.3s-7 28 7 35-44 17-48 0l2-8s8-10 6-19Z" fill="#a0616a"/>
  <path d="M753 339.8s-17.3 1.6-22.7-9.7c0 0-40.4 2.7-49.4 39.7l15 96s-16 28-14 31c0 0-10 28 82 29l40-2a55.6 55.6 0 0 0-1-17c-2-9-13-72-13-72s30-47 27-54-7.8-34.6-46.4-45.8c0 0-.6 5.8-17.6 4.8Z" fill="#e6e6e6"/>
  <path d="m804 363.8 13 17s13 71 9 72-28 9-32 6-22-62-22-62ZM698 358.8l-17 11s-25 70-18 73 46 1 46 1Z" fill="#e6e6e6"/>
  <path d="M776.3 270.6s-9-19.5-26.2-15-27 11.2-27.8 18 .4 16.9.4 16.9 1.9-14 13.9-11a81.1 81.1 0 0 0 21 1.5 9.2 9.2 0 0 1 9.6 9.3l-.3 21.5s25-16 9.4-41.2Z" fill="#2f2e41"/>
  <path d="M653.7 278.1H300.5a6.5 6.5 0 0 1-6.5-6.5V109.4a6.5 6.5 0 0 1 6.5-6.5h353.2a6.5 6.5 0 0 1 6.5 6.5v162.2a6.5 6.5 0 0 1-6.5 6.5ZM300.5 105.5a4 4 0 0 0-3.9 4v162a4 4 0 0 0 4 4h353.1a4 4 0 0 0 4-4v-162a4 4 0 0 0-4-4Z" fill="#e6e6e6"/>
  <circle cx="352.8" cy="160.3" r="26.6" fill="#6c63ff"/>
  <path d="M414.3 142.6a4.4 4.4 0 1 0 0 8.8h209.3a4.4 4.4 0 0 0 0-8.8ZM414.3 169.2a4.4 4.4 0 1 0 0 8.9h90a4.4 4.4 0 1 0 0-8.9ZM332.4 211.8c-3.4 0-6.2 2-6.2 4.4s2.8 4.5 6.2 4.5h288.8c3.3 0 6-2 6-4.5s-2.7-4.4-6-4.4ZM332.4 238.4c-3.4 0-6.2 2-6.2 4.5s2.8 4.4 6.2 4.4h288.8c3.3 0 6-2 6-4.4s-2.7-4.5-6-4.5Z" fill="#e6e6e6"/>
  <circle cx="590.1" cy="47.4" r="47.4" fill="#6c63ff"/>
  <path fill="#6c63ff" d="m590.1 124.4-14.8-25.7-14.8-25.6h59.2l-14.8 25.6-14.8 25.7z"/>
  <circle cx="590.5" cy="47.1" r="17" fill="#fff"/>
  <ellipse cx="768.9" cy="293.8" rx="4" ry="5" fill="#a0616a"/>
</svg>